<svg width="20" height="20" viewBox="0 0 20 20" fill="none" xmlns="http://www.w3.org/2000/svg">
<path d="M10 3.63636C9.74242 3.63636 9.52667 3.54909 9.35273 3.37455C9.17818 3.20061 9.09091 2.98485 9.09091 2.72727V0.909091C9.09091 0.651515 9.17818 0.435455 9.35273 0.260909C9.52667 0.0869696 9.74242 0 10 0C10.2576 0 10.4736 0.0869696 10.6482 0.260909C10.8221 0.435455 10.9091 0.651515 10.9091 0.909091V2.72727C10.9091 2.98485 10.8221 3.20061 10.6482 3.37455C10.4736 3.54909 10.2576 3.63636 10 3.63636ZM14.5 5.5C14.3333 5.33333 14.25 5.12485 14.25 4.87455C14.25 4.62485 14.3333 4.40909 14.5 4.22727L15.7727 2.93182C15.9545 2.75 16.1703 2.65909 16.42 2.65909C16.6703 2.65909 16.8864 2.75 17.0682 2.93182C17.2348 3.09848 17.3182 3.31061 17.3182 3.56818C17.3182 3.82576 17.2348 4.03788 17.0682 4.20455L15.7727 5.5C15.6061 5.66667 15.3939 5.75 15.1364 5.75C14.8788 5.75 14.6667 5.66667 14.5 5.5ZM17.2727 10.9091C17.0152 10.9091 16.7994 10.8218 16.6255 10.6473C16.4509 10.4733 16.3636 10.2576 16.3636 10C16.3636 9.74242 16.4509 9.52636 16.6255 9.35182C16.7994 9.17788 17.0152 9.09091 17.2727 9.09091H19.0909C19.3485 9.09091 19.5642 9.17788 19.7382 9.35182C19.9127 9.52636 20 9.74242 20 10C20 10.2576 19.9127 10.4733 19.7382 10.6473C19.5642 10.8218 19.3485 10.9091 19.0909 10.9091H17.2727ZM10 20C9.74242 20 9.52667 19.9127 9.35273 19.7382C9.17818 19.5642 9.09091 19.3485 9.09091 19.0909V17.2727C9.09091 17.0152 9.17818 16.7994 9.35273 16.6255C9.52667 16.4509 9.74242 16.3636 10 16.3636C10.2576 16.3636 10.4736 16.4509 10.6482 16.6255C10.8221 16.7994 10.9091 17.0152 10.9091 17.2727V19.0909C10.9091 19.3485 10.8221 19.5642 10.6482 19.7382C10.4736 19.9127 10.2576 20 10 20ZM4.22727 5.5L2.93182 4.22727C2.75 4.04545 2.65909 3.82576 2.65909 3.56818C2.65909 3.31061 2.75 3.09848 2.93182 2.93182C3.09848 2.76515 3.31061 2.68182 3.56818 2.68182C3.82576 2.68182 4.03788 2.76515 4.20455 2.93182L5.5 4.22727C5.66667 4.39394 5.75 4.60606 5.75 4.86364C5.75 5.12121 5.66667 5.33333 5.5 5.5C5.31818 5.66667 5.10606 5.75 4.86364 5.75C4.62121 5.75 4.40909 5.66667 4.22727 5.5ZM15.7727 17.0682L14.5 15.7727C14.3333 15.5909 14.25 15.3752 14.25 15.1255C14.25 14.8752 14.3333 14.6667 14.5 14.5C14.6667 14.3333 14.8752 14.25 15.1255 14.25C15.3752 14.25 15.5909 14.3333 15.7727 14.5L17.0682 15.7727C17.25 15.9394 17.337 16.1515 17.3291 16.4091C17.3218 16.6667 17.2348 16.8864 17.0682 17.0682C16.8864 17.25 16.6667 17.3409 16.4091 17.3409C16.1515 17.3409 15.9394 17.25 15.7727 17.0682ZM0.909091 10.9091C0.651515 10.9091 0.435758 10.8218 0.261818 10.6473C0.0872727 10.4733 0 10.2576 0 10C0 9.74242 0.0872727 9.52636 0.261818 9.35182C0.435758 9.17788 0.651515 9.09091 0.909091 9.09091H2.72727C2.98485 9.09091 3.20091 9.17788 3.37545 9.35182C3.54939 9.52636 3.63636 9.74242 3.63636 10C3.63636 10.2576 3.54939 10.4733 3.37545 10.6473C3.20091 10.8218 2.98485 10.9091 2.72727 10.9091H0.909091ZM2.93182 17.0682C2.76515 16.9015 2.68182 16.6894 2.68182 16.4318C2.68182 16.1742 2.76515 15.9621 2.93182 15.7955L4.22727 14.5C4.39394 14.3333 4.60242 14.25 4.85273 14.25C5.10242 14.25 5.31818 14.3333 5.5 14.5C5.68182 14.6818 5.77273 14.8979 5.77273 15.1482C5.77273 15.3979 5.68182 15.6136 5.5 15.7955L4.22727 17.0682C4.04545 17.25 3.82576 17.3409 3.56818 17.3409C3.31061 17.3409 3.09848 17.25 2.93182 17.0682ZM10 15.4545C8.48485 15.4545 7.19697 14.9242 6.13636 13.8636C5.07576 12.803 4.54545 11.5152 4.54545 10C4.54545 8.48485 5.07576 7.19697 6.13636 6.13636C7.19697 5.07576 8.48485 4.54545 10 4.54545C11.5152 4.54545 12.803 5.07576 13.8636 6.13636C14.9242 7.19697 15.4545 8.48485 15.4545 10C15.4545 11.5152 14.9242 12.803 13.8636 13.8636C12.803 14.9242 11.5152 15.4545 10 15.4545ZM10 13.6364C11 13.6364 11.8561 13.2803 12.5682 12.5682C13.2803 11.8561 13.6364 11 13.6364 10C13.6364 9 13.2803 8.14394 12.5682 7.43182C11.8561 6.7197 11 6.36364 10 6.36364C9 6.36364 8.14394 6.7197 7.43182 7.43182C6.7197 8.14394 6.36364 9 6.36364 10C6.36364 11 6.7197 11.8561 7.43182 12.5682C8.14394 13.2803 9 13.6364 10 13.6364Z" fill="black"/>
</svg>
