<svg width="20" height="20" viewBox="0 0 20 20" fill="none" xmlns="http://www.w3.org/2000/svg">
<path d="M11.1713 17.9901C12.1768 17.9901 13.1498 17.8434 14.0904 17.5499C15.0303 17.2572 15.8912 16.8344 16.6732 16.2817C15.5933 15.93 14.4531 15.3645 13.2526 14.5854C12.0513 13.8069 10.9945 12.8314 10.0821 11.659C9.16981 10.4865 8.50437 9.12551 8.08582 7.57588C7.66652 6.02693 7.6803 4.30613 8.12716 2.41349C6.3956 2.96621 4.98056 3.92493 3.88204 5.28964C2.78353 6.65502 2.23427 8.20866 2.23427 9.95057C2.23427 12.1782 3.10489 14.0752 4.84613 15.6416C6.58663 17.2073 8.69503 17.9901 11.1713 17.9901ZM11.1713 20C9.62598 20 8.1737 19.736 6.81452 19.2081C5.45534 18.6808 4.27304 17.965 3.26762 17.0605C2.2622 16.1561 1.46643 15.0925 0.880302 13.8698C0.293434 12.6472 0 11.3407 0 9.95057C0 7.48845 0.860938 5.31945 2.58282 3.44356C4.30544 1.56766 6.60971 0.428727 9.49565 0.02675C10.0356 -0.0569953 10.4221 0.0558933 10.6552 0.365416C10.8876 0.675608 10.9014 1.08194 10.6966 1.58441C10.138 2.99133 9.9425 4.41065 10.1101 5.84236C10.2776 7.27474 10.7338 8.59389 11.4786 9.79982C12.2233 11.0058 13.2243 12.0482 14.4814 12.9272C15.7378 13.8069 17.1759 14.4058 18.7958 14.724C19.3916 14.8413 19.7684 15.0674 19.9263 15.4024C20.085 15.7374 19.9874 16.0891 19.6336 16.4576C18.6096 17.5463 17.367 18.4088 15.9058 19.0453C14.4438 19.6818 12.8657 20 11.1713 20Z" fill="black"/>
</svg>
